<svg width="36" height="37" viewBox="0 0 36 37" fill="none" xmlns="http://www.w3.org/2000/svg">
<path d="M17.8534 21.566C19.6315 21.566 21.0729 20.1246 21.0729 18.3465C21.0729 16.5684 19.6315 15.127 17.8534 15.127C16.0753 15.127 14.6339 16.5684 14.6339 18.3465C14.6339 20.1246 16.0753 21.566 17.8534 21.566Z" fill="#C2E1F7"/>
<path d="M21.8778 10.4443H13.8291C12.6584 10.4443 11.634 10.8102 10.9755 11.4687C10.317 12.1273 9.95111 13.1517 9.95111 14.3224V22.3712C9.95111 23.5419 10.317 24.5663 11.0487 25.298C11.7804 25.9565 12.7316 26.3224 13.9023 26.3224H21.8778C23.0485 26.3224 24.0729 25.9565 24.7314 25.298C25.4631 24.6395 25.8289 23.6151 25.8289 22.4443V14.3956C25.8289 13.2248 25.4631 12.2736 24.8046 11.5419C24.0729 10.8102 23.1217 10.4443 21.8778 10.4443ZM17.8534 23.3224C15.073 23.3224 12.8779 21.0541 12.8779 18.3468C12.8779 15.5663 15.1462 13.3712 17.8534 13.3712C20.5607 13.3712 22.9022 15.5663 22.9022 18.3468C22.9022 21.1273 20.6339 23.3224 17.8534 23.3224ZM23.0485 14.3224C22.39 14.3224 21.8778 13.8102 21.8778 13.1517C21.8778 12.4931 22.39 11.9809 23.0485 11.9809C23.707 11.9809 24.2192 12.4931 24.2192 13.1517C24.2192 13.8102 23.707 14.3224 23.0485 14.3224Z" fill="#C2E1F7"/>
<path d="M17.9998 0.200195C8.04867 0.200195 0 8.24898 0 18.2002C0 28.1514 8.04867 36.2002 17.9998 36.2002C27.9508 36.2002 35.9995 28.1514 35.9995 18.2002C36.0727 8.24898 27.9508 0.200195 17.9998 0.200195ZM27.585 22.4441C27.585 24.127 26.9996 25.5904 25.9753 26.6148C24.9509 27.6392 23.4875 28.1514 21.8777 28.1514H13.9022C12.2925 28.1514 10.8291 27.6392 9.80474 26.6148C8.7072 25.5904 8.19501 24.127 8.19501 22.4441V14.3953C8.19501 11.0295 10.4633 8.688 13.9022 8.688H21.9509C23.6338 8.688 25.024 9.27337 26.0484 10.2978C27.0728 11.3221 27.585 12.7124 27.585 14.3953V22.4441Z" fill="#C2E1F7"/>
</svg>
