<svg width="20" height="20" viewBox="0 0 20 20" fill="none" xmlns="http://www.w3.org/2000/svg">
<path d="M19.4286 15.6072C19.4286 15.8482 19.3839 16.163 19.2947 16.5513C19.2054 16.9397 19.1116 17.2455 19.0134 17.4688C18.8259 17.9152 18.2813 18.3884 17.3795 18.8884C16.5402 19.3438 15.7098 19.5714 14.8884 19.5714C14.6473 19.5714 14.413 19.5558 14.1853 19.5246C13.9576 19.4933 13.7009 19.4375 13.4152 19.3572C13.1295 19.2768 12.9174 19.2121 12.779 19.163C12.6406 19.1138 12.3929 19.0223 12.0357 18.8884C11.6786 18.7545 11.4598 18.6741 11.3795 18.6473C10.5045 18.3348 9.72323 17.9643 9.03573 17.5357C7.89287 16.8304 6.71207 15.8683 5.49332 14.6496C4.27457 13.4308 3.31251 12.25 2.60716 11.1072C2.17858 10.4197 1.80805 9.6384 1.49555 8.7634C1.46876 8.68304 1.38841 8.46429 1.25448 8.10715C1.12055 7.75001 1.02903 7.50224 0.979924 7.36385C0.930817 7.22546 0.866085 7.0134 0.785727 6.72769C0.70537 6.44197 0.649567 6.18528 0.618317 5.9576C0.587067 5.72992 0.571442 5.49554 0.571442 5.25447C0.571442 4.43304 0.79912 3.60269 1.25448 2.7634C1.75448 1.86162 2.22769 1.31697 2.67412 1.12947C2.89733 1.03126 3.20314 0.937509 3.59153 0.848223C3.97992 0.758937 4.29466 0.714294 4.53573 0.714294C4.66073 0.714294 4.75448 0.727687 4.81698 0.754473C4.97769 0.808044 5.2143 1.14733 5.5268 1.77233C5.62501 1.94197 5.75894 2.18304 5.92858 2.49554C6.09823 2.80804 6.25448 3.09153 6.39733 3.34599C6.54019 3.60046 6.67858 3.83929 6.81251 4.06251C6.8393 4.09822 6.91742 4.20983 7.04689 4.39733C7.17635 4.58483 7.27233 4.74331 7.33483 4.87278C7.39733 5.00224 7.42858 5.12947 7.42858 5.25447C7.42858 5.43304 7.30135 5.65626 7.04689 5.92412C6.79242 6.19197 6.51564 6.43751 6.21653 6.66072C5.91742 6.88394 5.64064 7.12054 5.38617 7.37054C5.13171 7.62054 5.00448 7.8259 5.00448 7.98662C5.00448 8.06697 5.0268 8.16742 5.07144 8.28796C5.11608 8.40849 5.15403 8.50001 5.18528 8.56251C5.21653 8.62501 5.27903 8.73215 5.37278 8.88394C5.46653 9.03572 5.51787 9.12054 5.5268 9.1384C6.20537 10.3616 6.98216 11.4107 7.85716 12.2857C8.73216 13.1607 9.78126 13.9375 11.0045 14.6161C11.0223 14.625 11.1072 14.6763 11.2589 14.7701C11.4107 14.8638 11.5179 14.9263 11.5804 14.9576C11.6429 14.9888 11.7344 15.0268 11.8549 15.0714C11.9755 15.1161 12.0759 15.1384 12.1563 15.1384C12.317 15.1384 12.5223 15.0112 12.7723 14.7567C13.0223 14.5022 13.2589 14.2255 13.4822 13.9263C13.7054 13.6272 13.9509 13.3505 14.2188 13.096C14.4866 12.8415 14.7098 12.7143 14.8884 12.7143C15.0134 12.7143 15.1406 12.7455 15.2701 12.808C15.3996 12.8705 15.558 12.9665 15.7455 13.096C15.933 13.2255 16.0447 13.3036 16.0804 13.3304C16.3036 13.4643 16.5424 13.6027 16.7969 13.7455C17.0514 13.8884 17.3348 14.0447 17.6473 14.2143C17.9598 14.3839 18.2009 14.5179 18.3705 14.6161C18.9955 14.9286 19.3348 15.1652 19.3884 15.3259C19.4152 15.3884 19.4286 15.4822 19.4286 15.6072Z" fill="#168CE1"/>
</svg>
