<svg width="20" height="20" viewBox="0 0 20 20" fill="none" xmlns="http://www.w3.org/2000/svg">
<path d="M19.4286 15.6072C19.4286 15.8483 19.3839 16.163 19.2947 16.5514C19.2054 16.9398 19.1116 17.2456 19.0134 17.4688C18.8259 17.9152 18.2813 18.3885 17.3795 18.8885C16.5402 19.3438 15.7098 19.5715 14.8884 19.5715C14.6473 19.5715 14.413 19.5559 14.1853 19.5246C13.9576 19.4934 13.7009 19.4376 13.4152 19.3572C13.1295 19.2769 12.9174 19.2121 12.779 19.163C12.6406 19.1139 12.3929 19.0224 12.0357 18.8885C11.6786 18.7545 11.4598 18.6742 11.3795 18.6474C10.5045 18.3349 9.72323 17.9644 9.03573 17.5358C7.89287 16.8304 6.71207 15.8684 5.49332 14.6496C4.27457 13.4309 3.31251 12.2501 2.60716 11.1072C2.17858 10.4197 1.80805 9.63846 1.49555 8.76346C1.46876 8.68311 1.38841 8.46436 1.25448 8.10721C1.12055 7.75007 1.02903 7.5023 0.979924 7.36391C0.930817 7.22552 0.866085 7.01346 0.785727 6.72775C0.70537 6.44203 0.649567 6.18534 0.618317 5.95766C0.587067 5.72998 0.571442 5.49561 0.571442 5.25453C0.571442 4.43311 0.79912 3.60275 1.25448 2.76346C1.75448 1.86168 2.22769 1.31703 2.67412 1.12953C2.89733 1.03132 3.20314 0.93757 3.59153 0.848284C3.97992 0.758998 4.29466 0.714355 4.53573 0.714355C4.66073 0.714355 4.75448 0.727748 4.81698 0.754534C4.97769 0.808105 5.2143 1.14739 5.5268 1.77239C5.62501 1.94203 5.75894 2.18311 5.92858 2.49561C6.09823 2.80811 6.25448 3.09159 6.39733 3.34605C6.54019 3.60052 6.67858 3.83936 6.81251 4.06257C6.8393 4.09828 6.91742 4.20989 7.04689 4.39739C7.17635 4.58489 7.27233 4.74337 7.33483 4.87284C7.39733 5.0023 7.42858 5.12953 7.42858 5.25453C7.42858 5.43311 7.30135 5.65632 7.04689 5.92418C6.79242 6.19203 6.51564 6.43757 6.21653 6.66078C5.91742 6.884 5.64064 7.12061 5.38617 7.37061C5.13171 7.62061 5.00448 7.82596 5.00448 7.98668C5.00448 8.06703 5.0268 8.16748 5.07144 8.28802C5.11608 8.40855 5.15403 8.50007 5.18528 8.56257C5.21653 8.62507 5.27903 8.73221 5.37278 8.884C5.46653 9.03578 5.51787 9.12061 5.5268 9.13846C6.20537 10.3617 6.98216 11.4108 7.85716 12.2858C8.73216 13.1608 9.78126 13.9376 11.0045 14.6161C11.0223 14.6251 11.1072 14.6764 11.2589 14.7702C11.4107 14.8639 11.5179 14.9264 11.5804 14.9577C11.6429 14.9889 11.7344 15.0269 11.8549 15.0715C11.9755 15.1161 12.0759 15.1385 12.1563 15.1385C12.317 15.1385 12.5223 15.0112 12.7723 14.7568C13.0223 14.5023 13.2589 14.2255 13.4822 13.9264C13.7054 13.6273 13.9509 13.3505 14.2188 13.0961C14.4866 12.8416 14.7098 12.7144 14.8884 12.7144C15.0134 12.7144 15.1406 12.7456 15.2701 12.8081C15.3996 12.8706 15.558 12.9666 15.7455 13.0961C15.933 13.2255 16.0447 13.3036 16.0804 13.3304C16.3036 13.4644 16.5424 13.6027 16.7969 13.7456C17.0514 13.8885 17.3348 14.0447 17.6473 14.2144C17.9598 14.384 18.2009 14.5179 18.3705 14.6161C18.9955 14.9286 19.3348 15.1652 19.3884 15.326C19.4152 15.3885 19.4286 15.4822 19.4286 15.6072Z" fill="white"/>
</svg>
